<svg width="25" height="25" viewBox="0 0 25 25" fill="none" xmlns="http://www.w3.org/2000/svg">
<path d="M3.5 22.5H21.5" stroke="#5C5EDC" stroke-width="1.5" stroke-linecap="round" stroke-linejoin="round"/>
<path d="M6.09998 8.87988H4.5C3.95 8.87988 3.5 9.32988 3.5 9.87988V18.4999C3.5 19.0499 3.95 19.4999 4.5 19.4999H6.09998C6.64998 19.4999 7.09998 19.0499 7.09998 18.4999V9.87988C7.09998 9.32988 6.64998 8.87988 6.09998 8.87988Z" stroke="#5C5EDC" stroke-width="1.5" stroke-linecap="round" stroke-linejoin="round"/>
<path d="M13.3002 5.68994H11.7002C11.1502 5.68994 10.7002 6.13994 10.7002 6.68994V18.4999C10.7002 19.0499 11.1502 19.4999 11.7002 19.4999H13.3002C13.8502 19.4999 14.3002 19.0499 14.3002 18.4999V6.68994C14.3002 6.13994 13.8502 5.68994 13.3002 5.68994Z" stroke="#5C5EDC" stroke-width="1.5" stroke-linecap="round" stroke-linejoin="round"/>
<path d="M20.4999 2.5H18.8999C18.3499 2.5 17.8999 2.95 17.8999 3.5V18.5C17.8999 19.05 18.3499 19.5 18.8999 19.5H20.4999C21.0499 19.5 21.4999 19.05 21.4999 18.5V3.5C21.4999 2.95 21.0499 2.5 20.4999 2.5Z" stroke="#5C5EDC" stroke-width="1.5" stroke-linecap="round" stroke-linejoin="round"/>
</svg>
