<svg width="10" height="7" viewBox="0 0 10 7" fill="none" xmlns="http://www.w3.org/2000/svg">
<path fill-rule="evenodd" clip-rule="evenodd" d="M8.97735 1.12937C9.09452 1.24657 9.16034 1.40551 9.16034 1.57124C9.16034 1.73697 9.09452 1.89591 8.97735 2.01312L4.29276 6.6977C4.23086 6.75962 4.15736 6.80874 4.07646 6.84225C3.99557 6.87577 3.90887 6.89302 3.82131 6.89302C3.73375 6.89302 3.64704 6.87577 3.56615 6.84225C3.48526 6.80874 3.41176 6.75962 3.34985 6.6977L1.02235 4.37062C0.962654 4.31296 0.91504 4.244 0.882285 4.16774C0.849529 4.09149 0.832288 4.00948 0.831567 3.92649C0.830845 3.84351 0.846659 3.76121 0.878085 3.6844C0.90951 3.60759 0.955918 3.5378 1.0146 3.47912C1.07328 3.42044 1.14307 3.37403 1.21988 3.3426C1.29669 3.31118 1.37899 3.29536 1.46197 3.29609C1.54496 3.29681 1.62697 3.31405 1.70323 3.3468C1.77948 3.37956 1.84844 3.42717 1.9061 3.48687L3.8211 5.40187L8.09318 1.12937C8.15122 1.07129 8.22014 1.02521 8.296 0.993781C8.37185 0.962346 8.45316 0.946167 8.53527 0.946167C8.61738 0.946167 8.69868 0.962346 8.77454 0.993781C8.85039 1.02521 8.91931 1.07129 8.97735 1.12937Z" fill="#C5EC52"/>
</svg>
