<svg width="52" height="51" viewBox="0 0 52 51" fill="none" xmlns="http://www.w3.org/2000/svg">
<path d="M51.1327 0H0.843994V50.2794H51.1327V0Z" fill="#5C5EDC"/>
<path d="M26.051 36.4374H16.9382V45.6848H26.051V36.4374Z" fill="white"/>
<path d="M26.0498 16.5239H26.051V27.2572H16.9382V19.6292C16.9382 19.3668 16.8325 19.1323 16.6619 18.9605C16.4901 18.7887 16.2556 18.6842 15.9932 18.6842C15.4708 18.6842 15.0483 19.1068 15.0483 19.6292V45.6848H5.93549V16.5239H5.93665C5.93549 16.5007 5.93549 16.4798 5.93549 16.4565C5.93549 10.9006 10.4373 6.3988 15.9932 6.3988C21.5491 6.3988 26.051 10.9006 26.051 16.4565C26.051 16.4798 26.051 16.5007 26.0498 16.5239Z" fill="white"/>
<path d="M44.0113 26.9867H34.8312V36.1668H44.0113V26.9867Z" fill="white"/>
</svg>
