<svg width="207" height="38" viewBox="0 0 207 38" fill="none" xmlns="http://www.w3.org/2000/svg">
<g clip-path="url(#clip0_455_3059)">
<path d="M45.7153 8.19116H50.4464V19.7763L64.2845 8.22107L64.3381 28.6052H59.6073V16.7401L45.7326 28.7282L45.7153 8.19116Z" fill="#3D3D3D"/>
<path d="M86.9842 8.19116V28.6043H82.2534V12.5624H76.2814V20.6585C76.2814 22.0508 76.1137 23.2072 75.7786 24.1251C75.4432 25.0439 74.9684 25.848 74.3549 26.5367C73.5417 27.3981 72.5573 28.0079 71.401 28.3668C70.2452 28.7256 69.0103 28.8046 67.6985 28.6035V24.2539C68.3406 24.4117 68.9643 24.3934 69.5713 24.1999C70.1772 24.0063 70.6595 23.7156 71.0161 23.3276C71.2443 23.0693 71.4226 22.7212 71.5514 22.2834C71.6794 21.8457 71.7436 21.304 71.7436 20.6577V8.19116H86.9842Z" fill="#3D3D3D"/>
<path d="M92.9989 8.19116H97.7297V19.7763L111.635 8.22107L111.622 28.6052H106.891V16.7401L92.9751 28.7282L92.9989 8.19116Z" fill="#3D3D3D"/>
<path d="M115.282 28.5753L119.724 8.19116L128.574 21.8996L137.413 8.29912L141.887 28.5744H137.071L135.037 18.3458L128.568 28.5894L122.13 18.3458L120.097 28.5744H115.282V28.5753Z" fill="#3D3D3D"/>
<path d="M182.985 12.5624H177.056V28.6043H172.346V12.5624H166.396V8.19116H182.985V12.5624Z" fill="#3D3D3D"/>
<path d="M191.097 26.7743L191.127 37.8253H186.381L186.366 8.72949H191.097V10.9691C191.811 10.0935 192.681 9.41151 193.709 8.92386C194.736 8.43624 195.877 8.19202 197.133 8.19202C199.887 8.19202 202.22 9.17143 204.132 11.1311C206.045 13.0907 207 15.6568 207 18.8293C207 22.1165 206.005 24.7656 204.014 26.7752C202.023 28.7855 199.744 29.7898 197.175 29.7898C196.048 29.7898 194.938 29.5314 193.846 29.0148C192.756 28.4972 191.839 27.7504 191.097 26.7743ZM196.556 12.4544C194.943 12.4544 193.583 13.0284 192.478 14.1773C191.372 15.3262 190.819 16.9552 190.819 19.0653C190.819 21.1038 191.372 22.6864 192.478 23.8136C193.583 24.9409 194.943 25.5041 196.556 25.5041C198.225 25.5041 199.58 24.8836 200.623 23.6417C201.664 22.4006 202.185 20.8605 202.185 19.0229C202.185 17.1712 201.664 15.6136 200.623 14.3501C199.58 13.0866 198.225 12.4544 196.556 12.4544Z" fill="#3D3D3D"/>
<path d="M164.739 19.7981H148.514C148.628 21.707 149.192 23.1965 150.205 24.2665C151.218 25.3364 152.567 25.8706 154.251 25.8706C155.749 25.8706 156.997 25.5549 157.997 24.9227C158.995 24.2914 159.866 23.2721 160.607 21.8649L164.525 24.0613C163.383 26.114 161.971 27.6434 160.287 28.6477C158.603 29.652 156.626 30.1546 154.358 30.1546C151.104 30.1546 148.515 29.1569 146.588 27.1615C144.662 25.1661 143.699 22.5037 143.699 19.1725C143.699 15.9718 144.694 13.3409 146.685 11.2807C148.676 9.22137 151.233 8.19043 154.359 8.19043C157.626 8.19043 160.174 9.13082 162.001 11.0115C163.827 12.8923 164.74 15.5265 164.74 18.9142V19.7981H164.739ZM159.923 16.6538C159.737 15.1892 159.18 14.0736 158.253 13.3052C157.325 12.5376 156.056 12.153 154.443 12.153C152.916 12.153 151.689 12.5268 150.762 13.2728C149.834 14.0196 149.185 15.146 148.814 16.6538H159.923Z" fill="#3D3D3D"/>
<path d="M35.7724 0H0V35.98H35.7724V0Z" fill="#5557F2"/>
<path d="M17.9308 26.0746H11.4485V32.6921H17.9308V26.0746Z" fill="#3D3D3D"/>
<path d="M17.93 11.8244H17.9308V19.5052H11.4485V14.0465C11.4485 13.8588 11.3734 13.691 11.252 13.5681C11.1298 13.4451 10.963 13.3703 10.7764 13.3703C10.4048 13.3703 10.1042 13.6727 10.1042 14.0465V32.692H3.62189V11.8244H3.62271C3.62189 11.8078 3.62189 11.7928 3.62189 11.7762C3.62189 7.80038 6.82424 4.57886 10.7764 4.57886C14.7285 4.57886 17.9308 7.80038 17.9308 11.7762C17.9308 11.7928 17.9308 11.8078 17.93 11.8244Z" fill="#3D3D3D"/>
<path d="M30.7067 19.3116H24.1765V25.881H30.7067V19.3116Z" fill="#3D3D3D"/>
</g>
<defs>
<clipPath id="clip0_455_3059">
<rect width="207" height="38" fill="white"/>
</clipPath>
</defs>
</svg>
