<svg width="286" height="52" viewBox="0 0 286 52" fill="none" xmlns="http://www.w3.org/2000/svg">
<path d="M63.163 11.7959H69.6993V27.2696L88.8188 11.8358L88.893 39.0618H82.3567V23.2142L63.1869 39.2261L63.163 11.7959Z" fill="#3D3D3D"/>
<path d="M120.181 11.7957V39.0605H113.645V17.6341H105.394V28.4477C105.394 30.3073 105.162 31.8518 104.699 33.0778C104.236 34.305 103.58 35.379 102.732 36.2988C101.608 37.4494 100.248 38.2638 98.651 38.7432C97.0537 39.2225 95.348 39.3279 93.5351 39.0594V33.2498C94.4227 33.4606 95.2841 33.4362 96.1227 33.1777C96.9601 32.9192 97.6264 32.5308 98.1193 32.0127C98.4342 31.6676 98.6806 31.2027 98.8586 30.618C99.0355 30.0332 99.1245 29.3098 99.1245 28.4466V11.7957H120.181Z" fill="#3D3D3D"/>
<path d="M128.492 11.7957H135.028V27.2694L154.24 11.8356L154.222 39.0616H147.685V23.214L128.458 39.2258L128.492 11.7957Z" fill="#3D3D3D"/>
<path d="M159.278 39.0217L165.417 11.7957L177.644 30.1054L189.856 11.9399L196.038 39.0205H189.384L186.574 25.3587L177.636 39.0405L168.741 25.3587L165.932 39.0205H159.278V39.0217Z" fill="#3D3D3D"/>
<path d="M252.82 17.6341H244.628V39.0605H238.122V17.6341H229.9V11.7957H252.82V17.6341Z" fill="#3D3D3D"/>
<path d="M264.029 36.6163L264.07 51.3765H257.513L257.492 12.5148H264.029V15.5061C265.014 14.3366 266.217 13.4257 267.636 12.7744C269.055 12.1231 270.633 11.7969 272.368 11.7969C276.172 11.7969 279.396 13.105 282.038 15.7224C284.68 18.3399 286 21.7672 286 26.0046C286 30.3951 284.626 33.9334 281.875 36.6174C279.124 39.3025 275.975 40.6439 272.426 40.6439C270.868 40.6439 269.335 40.2988 267.827 39.6087C266.321 38.9175 265.053 37.92 264.029 36.6163ZM271.57 17.4899C269.342 17.4899 267.464 18.2566 265.936 19.7911C264.408 21.3256 263.644 23.5015 263.644 26.3197C263.644 29.0425 264.408 31.1562 265.936 32.6618C267.464 34.1675 269.342 34.9198 271.57 34.9198C273.877 34.9198 275.749 34.091 277.189 32.4322C278.628 30.7745 279.348 28.7174 279.348 26.2631C279.348 23.7899 278.628 21.7095 277.189 20.0219C275.749 18.3343 273.877 17.4899 271.57 17.4899Z" fill="#3D3D3D"/>
<path d="M227.61 27.2983H205.193C205.351 29.8481 206.13 31.8375 207.53 33.2666C208.93 34.6957 210.793 35.4091 213.119 35.4091C215.189 35.4091 216.914 34.9875 218.294 34.1431C219.674 33.2999 220.877 31.9385 221.902 30.0589L227.314 32.9925C225.736 35.7342 223.786 37.7769 221.459 39.1183C219.133 40.4598 216.402 41.131 213.267 41.131C208.772 41.131 205.194 39.7985 202.532 37.1333C199.871 34.4682 198.54 30.9121 198.54 26.4629C198.54 22.1878 199.915 18.6739 202.666 15.9222C205.417 13.1716 208.95 11.7947 213.269 11.7947C217.783 11.7947 221.303 13.0507 223.827 15.5627C226.35 18.0747 227.612 21.5931 227.612 26.1178V27.2983H227.61ZM220.956 23.0987C220.699 21.1426 219.93 19.6525 218.649 18.6261C217.367 17.6009 215.613 17.0872 213.385 17.0872C211.275 17.0872 209.58 17.5865 208.299 18.5829C207.016 19.5803 206.12 21.0849 205.607 23.0987H220.956Z" fill="#3D3D3D"/>
<path d="M49.4246 0.85498H0V48.9116H49.4246V0.85498Z" fill="#5C5EDC"/>
<path d="M24.774 35.6815H15.8178V44.5202H24.774V35.6815Z" fill="white"/>
<path d="M24.7732 16.6484H24.7743V26.9072H15.8181V19.6164C15.8181 19.3657 15.7143 19.1415 15.5466 18.9773C15.3777 18.8131 15.1472 18.7132 14.8894 18.7132C14.376 18.7132 13.9607 19.1171 13.9607 19.6164V44.5201H5.00446V16.6484H5.0056C5.00446 16.6262 5.00446 16.6062 5.00446 16.584C5.00446 11.2738 9.42894 6.97095 14.8894 6.97095C20.3498 6.97095 24.7743 11.2738 24.7743 16.584C24.7743 16.6062 24.7743 16.6262 24.7732 16.6484Z" fill="white"/>
<path d="M42.4258 26.6489H33.4034V35.4232H42.4258V26.6489Z" fill="white"/>
</svg>
