<svg width="16" height="16" viewBox="0 0 16 16" fill="none" xmlns="http://www.w3.org/2000/svg">
<path d="M13.625 4.23743C11.5438 4.03118 9.45 3.92493 7.3625 3.92493C6.125 3.92493 4.8875 3.98743 3.65 4.11243L2.375 4.23743" stroke="#8FB12B" stroke-linecap="round" stroke-linejoin="round"/>
<path d="M5.8125 3.60625L5.95 2.7875C6.05 2.19375 6.125 1.75 7.18125 1.75H8.81875C9.875 1.75 9.95625 2.21875 10.05 2.79375L10.1875 3.60625" stroke="#8FB12B" stroke-linecap="round" stroke-linejoin="round"/>
<path d="M12.2812 6.21252L11.875 12.5063C11.8062 13.4875 11.75 14.25 10.0062 14.25H5.99375C4.25 14.25 4.19375 13.4875 4.125 12.5063L3.71875 6.21252" stroke="#8FB12B" stroke-linecap="round" stroke-linejoin="round"/>
<path d="M6.9563 10.8125H9.03755" stroke="#8FB12B" stroke-linecap="round" stroke-linejoin="round"/>
<path d="M6.4375 8.3125H9.5625" stroke="#8FB12B" stroke-linecap="round" stroke-linejoin="round"/>
</svg>
