<svg width="18" height="19" viewBox="0 0 18 19" fill="none" xmlns="http://www.w3.org/2000/svg">
<path d="M9.66751 4.91003H3.83249C2.54999 4.91003 1.5 5.96002 1.5 7.24252V15.7625C1.5 16.85 2.28 17.315 3.2325 16.7825L6.17999 15.14C6.49499 14.9675 7.005 14.9675 7.3125 15.14L10.26 16.7825C11.2125 17.315 11.9925 16.85 11.9925 15.7625V7.24252C12 5.96002 10.95 4.91003 9.66751 4.91003Z" stroke="#3D3D3D" stroke-width="1.5" stroke-linecap="round" stroke-linejoin="round"/>
<path d="M12 7.24252V15.7625C12 16.85 11.22 17.3075 10.2675 16.7825L7.32001 15.14C7.00501 14.9675 6.49499 14.9675 6.17999 15.14L3.2325 16.7825C2.28 17.3075 1.5 16.85 1.5 15.7625V7.24252C1.5 5.96002 2.54999 4.91003 3.83249 4.91003H9.66751C10.95 4.91003 12 5.96002 12 7.24252Z" stroke="#3D3D3D" stroke-width="1.5" stroke-linecap="round" stroke-linejoin="round"/>
<path d="M16.5 4.33249V12.8525C16.5 13.94 15.72 14.3975 14.7675 13.8725L12 12.3275V7.24249C12 5.95999 10.95 4.91 9.66751 4.91H6V4.33249C6 3.04999 7.04999 2 8.33249 2H14.1675C15.45 2 16.5 3.04999 16.5 4.33249Z" stroke="#3D3D3D" stroke-width="1.5" stroke-linecap="round" stroke-linejoin="round"/>
</svg>
