<svg width="25" height="25" viewBox="0 0 25 25" fill="none" xmlns="http://www.w3.org/2000/svg">
<path d="M19.5598 19.1699L17.4198 14.8999L15.2798 19.1699" stroke="#5C5EDC" stroke-width="1.5" stroke-linecap="round" stroke-linejoin="round"/>
<path d="M15.6699 18.4099H19.1899" stroke="#5C5EDC" stroke-width="1.5" stroke-linecap="round" stroke-linejoin="round"/>
<path d="M17.4198 22.5001C14.6198 22.5001 12.3398 20.23 12.3398 17.42C12.3398 14.62 14.6098 12.3401 17.4198 12.3401C20.2198 12.3401 22.4998 14.61 22.4998 17.42C22.4998 20.23 20.2298 22.5001 17.4198 22.5001Z" stroke="#5C5EDC" stroke-width="1.5" stroke-linecap="round" stroke-linejoin="round"/>
<path d="M5.52 2.5H9.44C11.51 2.5 12.51 3.50002 12.46 5.52002V9.44C12.51 11.51 11.51 12.51 9.44 12.46H5.52C3.5 12.5 2.5 11.5 2.5 9.42999V5.51001C2.5 3.50001 3.5 2.5 5.52 2.5Z" stroke="#5C5EDC" stroke-width="1.5" stroke-linecap="round" stroke-linejoin="round"/>
<path d="M9.5097 6.34985H5.44971" stroke="#5C5EDC" stroke-width="1.5" stroke-linecap="round" stroke-linejoin="round"/>
<path d="M7.46973 5.66992V6.34991" stroke="#5C5EDC" stroke-width="1.5" stroke-linecap="round" stroke-linejoin="round"/>
<path d="M8.48994 6.33984C8.48994 8.08984 7.11994 9.50983 5.43994 9.50983" stroke="#5C5EDC" stroke-width="1.5" stroke-linecap="round" stroke-linejoin="round"/>
<path d="M9.51015 9.51001C8.78015 9.51001 8.12016 9.12 7.66016 8.5" stroke="#5C5EDC" stroke-width="1.5" stroke-linecap="round" stroke-linejoin="round"/>
<path d="M2.5 15.5C2.5 19.37 5.63 22.5 9.5 22.5L8.45 20.75" stroke="#5C5EDC" stroke-width="1.5" stroke-linecap="round" stroke-linejoin="round"/>
<path d="M22.5 9.5C22.5 5.63 19.37 2.5 15.5 2.5L16.55 4.25" stroke="#5C5EDC" stroke-width="1.5" stroke-linecap="round" stroke-linejoin="round"/>
</svg>
