<svg width="49" height="49" viewBox="0 0 49 49" fill="none" xmlns="http://www.w3.org/2000/svg">
<path d="M35 19.5C35 22.0196 33.9991 24.4359 32.2175 26.2175C30.4359 27.9991 28.0196 29 25.5 29C22.9804 29 20.5641 27.9991 18.7825 26.2175C17.0009 24.4359 16 22.0196 16 19.5C16 16.9804 17.0009 14.5641 18.7825 12.7825C20.5641 11.0009 22.9804 10 25.5 10C28.0196 10 30.4359 11.0009 32.2175 12.7825C33.9991 14.5641 35 16.9804 35 19.5Z" fill="#DEDEE2"/>
<path fill-rule="evenodd" clip-rule="evenodd" d="M0 24.5C0 18.0022 2.58124 11.7705 7.17588 7.17588C11.7705 2.58124 18.0022 0 24.5 0C30.9978 0 37.2295 2.58124 41.8241 7.17588C46.4188 11.7705 49 18.0022 49 24.5C49 30.9978 46.4188 37.2295 41.8241 41.8241C37.2295 46.4188 30.9978 49 24.5 49C18.0022 49 11.7705 46.4188 7.17588 41.8241C2.58124 37.2295 0 30.9978 0 24.5ZM24.5 3.0625C20.4629 3.06272 16.508 4.20286 13.0904 6.35171C9.67272 8.50056 6.9313 11.5708 5.18164 15.209C3.43198 18.8472 2.74518 22.9055 3.20031 26.9168C3.65543 30.9281 5.23397 34.7294 7.75425 37.8831C9.92863 34.3796 14.7153 30.625 24.5 30.625C34.2847 30.625 39.0683 34.3766 41.2458 37.8831C43.766 34.7294 45.3446 30.9281 45.7997 26.9168C46.2548 22.9055 45.568 18.8472 43.8184 15.209C42.0687 11.5708 39.3273 8.50056 35.9096 6.35171C32.492 4.20286 28.5371 3.06272 24.5 3.0625Z" fill="#DEDEE2"/>
</svg>
