<svg width="31" height="31" viewBox="0 0 31 31" fill="none" xmlns="http://www.w3.org/2000/svg">
<path d="M31 0H0V31H31V0Z" fill="#5C5EDC"/>
<path d="M16 22.9999H10V28.9999H16V22.9999Z" fill="white"/>
<path d="M15.9992 10.1854H16V16.7425H10.1107V12.0824C10.1107 11.9222 10.0424 11.7789 9.93213 11.6739C9.8211 11.569 9.66955 11.5052 9.5 11.5052C9.1624 11.5052 8.88931 11.7633 8.88931 12.0824V27.9999H3V10.1854H3.00075C3 10.1712 3 10.1584 3 10.1443C3 6.75013 5.90939 3.99994 9.5 3.99994C13.0906 3.99994 16 6.75013 16 10.1443C16 10.1584 16 10.1712 15.9992 10.1854Z" fill="white"/>
<path d="M27 16.9999H21V22.9999H27V16.9999Z" fill="white"/>
</svg>
